<svg version="1" xmlns="http://www.w3.org/2000/svg" width="1066.667" height="1066.667" viewBox="0 0 800.000000 800.000000"><path d="M435.2 65c-21 5.6-37.2 21-43.1 40.7l-1.6 5.4-3.4-2.6c-8.2-6-24-9-35-6.6-17.6 3.8-30.7 17.7-31.9 34-.6 9 1.6 16.2 7.3 24l4.5 6.1-162.2.2-162.2.3-1.8 3.2C2 176.1 3.9 189.3 8.9 192c1.3.6 15 1 37.3 1h35.3l-9.7 4.9c-18.8 9.4-34 21.3-45.2 35.3C10 253.9 1.7 275.1.3 300.1c-2.7 50.7 31.3 98.1 84.7 118l7.5 2.8-41.6.1H9.3l-2 2.2c-2.7 3-3.5 5.9-3.4 12.4 0 5.9 2 10.8 5 12.4 1.3.6 16.1 1 40.8 1l38.8.1-7.1 2.8c-18 7.1-33.9 17.7-47.7 32C12.5 505.8 1.9 529.4.3 558.1c-1.7 32.8 11.5 64.4 37.2 88.7 12.6 12 25 19.8 45.5 29 1.9.8-6.9 1.1-36.2 1.1L8 677l-1.7 2.6c-3.7 5.6-3.2 17.8.9 22.1l2.2 2.3 390.9-.2 391-.3 2.1-2.8c3-4.1 3-16.3 0-20.4l-2.1-2.8-38.9-.5-38.9-.5 4.5-1.9c16.9-7.3 30.3-16.1 43-28.2 25.8-24.8 38.4-54.9 36.7-88.3-1.4-28.3-13.6-55-34.7-76-13.3-13.2-26.7-21.8-50-31.9-1.9-.8 7.5-1.1 36.5-1.1 43.3-.1 42.3 0 45.1-6.7 2.7-6.5.6-18.1-3.7-20.4-1-.6-18.6-1-43.6-1l-41.8-.1 7.5-2.8c19-7.1 35.4-17.5 49.6-31.6 15.9-15.8 26.4-33.4 32-54 2.4-8.9 2.7-11.8 2.8-26.5 0-18.4-1.1-24.9-6.7-39.9-6.7-17.8-18.6-34.7-33.3-47.5-10.5-9.1-17.8-14-30.4-20.3l-10.5-5.3h73.6l2.4-2.6c4.2-4.6 4.6-16.1.7-21.4l-1.9-2.5-151.8-.5-151.8-.5 5.6-4.3c13.8-10.4 21.7-25.9 21.7-42.7 0-14.3-5.2-26.6-15.6-36.9-7.2-7.2-14.6-11.8-24.6-15.3-10.1-3.6-28.8-4.3-39.6-1.3zm-19.7 98.7l3 2.2-13.2.1c-7.3 0-13.3-.3-13.3-.6 0-.4 1.4-2.2 3.1-4.1 1.7-2 3.8-5 4.6-6.9l1.7-3.4 5.5 5.3c3.1 2.9 7 6.2 8.6 7.4zM333 197.8c-28.5 14.3-47.7 33.1-60.6 59l-4.1 8.3-2.3-5.6c-2.7-6.8-12.7-21.9-19.5-29.9-10.3-11.9-24.8-22.8-42-31.5l-10-5h148l-9.5 4.7zm259.5 1c-18.1 9.4-31.2 19.5-41.9 32.2-8.5 10.2-10.3 12.9-16.2 24.3l-5.1 9.9-2.3-5.6c-2.7-6.9-12.6-22-19.5-30-10.2-11.9-25.4-23.2-42.3-31.7l-9.7-4.8h148l-11 5.7zM165.2 202c59.6 12.2 99.1 59.6 93.7 112.6-2.3 22.3-12.4 42.8-29.5 59.9-16.9 16.9-38.3 28.1-64.7 33.6-14.5 3.1-38.9 3.1-53.4 0-26-5.5-47.5-16.6-64.1-33-9.9-9.8-16.1-18.4-21.6-30.2-7.6-16.5-10.4-32.6-8.6-49.2 1.5-12.9 3.4-19.6 9.5-32.2 16.8-34.6 53-58.5 96.3-63.5 10.9-1.2 31-.3 42.4 2zm251.8-1.5c42.9 5.8 76.9 28.7 93.5 63 8.6 17.9 11.6 33.7 9.5 51.2-5.6 47-44.4 84.5-97.4 94-12.1 2.2-35.1 2.2-47.2 0-45.5-8.2-81.5-37.4-93.7-76.2-7.2-22.7-5.4-45.8 5.2-68 21.5-45.2 75.1-71.5 130.1-64zm271.5 1.5c72.7 15.4 112.2 82.7 83.9 142.9-8.3 17.6-20.9 32-38.4 43.6-45.6 30.4-109.3 28.9-152.9-3.5-10.1-7.5-21.9-20.3-28.1-30.3-9.7-15.8-14-31.1-14-50.1 0-22.7 6.9-42 21.6-60.4 19.5-24.5 49.4-40 85.4-44.6 8.3-1 32.7.4 42.5 2.4zM271.9 352.7c13.4 28.6 41.2 53.1 74.1 65.4l7.5 2.8h-170l7.5-2.8c32.4-12.1 60.9-37.2 74.1-65.4 1.7-3.7 3.2-6.7 3.4-6.7.2 0 1.7 3 3.4 6.7zm262.5 2.6c6.2 12.1 12.6 20.8 23.1 31.2 13.4 13.4 29.2 23.5 48.4 31.1l8.6 3.3h-170l7.5-2.8c31.9-11.9 58.6-35 72.7-62.8 2.6-5.1 4.8-9.1 5-8.9.2.2 2.3 4.2 4.7 8.9zm-193.2 97.2c-17.6 7.2-30.1 15.4-43.5 28.4-10.9 10.6-17.3 19-24.1 32l-5.2 10-4.6-9.2c-13.4-27-40.1-50.7-70.3-62.3l-6-2.3h81l81-.1-8.3 3.5zm260.8 0c-30.2 12.4-55.9 36-68.8 63.2l-3.5 7.5-4.4-8.7c-6.3-12.5-11.5-19.7-22-30.6-13.8-14.3-29.7-24.9-47.7-32l-7.1-2.8h81l81-.1-8.5 3.5zm83.2 7.1c47.4 9 83.3 40.2 94 81.7 1.7 6.4 2.1 11.2 2.1 21.7s-.4 15.3-2.1 21.7c-11 42.6-47.8 73.8-97.2 82.4-10.9 1.9-35.5 1.7-46.4-.5-47-9.2-82.1-38.9-93.8-79.2-2-6.8-2.3-10.2-2.3-24.4s.3-17.6 2.3-24.4c5.1-17.7 13.8-32 27.9-45.8 20.6-20.1 46.5-31.7 78.8-35.2 7.1-.7 28.2.4 36.7 2zm-529.4-.6c32.8 4.1 64.7 21.5 83 45.3 30.2 39.1 27.3 90.5-7.2 126.6-18.1 18.9-43.1 31.8-70.5 36.5-12.2 2.1-33.9 2.1-46.2 0-41.3-6.9-76.9-33.4-91-67.8-5.6-13.7-7.2-23.1-6.6-39.4.5-15.9 2.1-22.9 8.2-35.8 5.8-12.6 11.4-20.5 20.9-29.9 20.3-20.2 43.8-31.2 76.6-35.9 5.6-.8 25.1-.5 32.8.4zm272.5 1.4c36.7 8.4 67.4 31.1 82.4 61.1 15 29.8 12.7 65.1-6 93.9-28.6 43.9-89.1 64-144.5 48-17.2-4.9-37.1-16.1-50.5-28.4-11.2-10.3-22.3-27.4-27.5-42.5-7-20.6-5.9-44.9 3-66.3 6.7-16 22.8-35.4 38.5-46 15.6-10.6 36.9-18.7 56.8-21.6 6.9-1 41.2.3 47.8 1.8zM281.9 628c5.8 8.6 22.7 25.2 32.3 31.8 6.6 4.5 19.3 11.3 29.8 16 1.9.8-17.5 1.1-75.5 1.1-58.8 0-77.4-.3-75.5-1.2 22.8-10.3 33.9-17.5 47.6-31.2 10.5-10.3 19.3-22.5 24.8-34.3l3-6.2 4.5 8.7c2.6 4.9 6.6 11.7 9 15.3zm251-17.3c5.4 11.4 14 23.4 24.5 33.8 11.6 11.6 22.4 19.1 38.6 26.9l11.5 5.6-78-.1c-58.1 0-77.4-.3-75.5-1.1 34.7-15.5 56.7-34.8 70.6-62.2 2.7-5.3 5-9.6 5.1-9.6 0 0 1.5 3 3.2 6.7z"/></svg>