<svg version="1" xmlns="http://www.w3.org/2000/svg" width="1066.667" height="1066.667" viewBox="0 0 800.000000 800.000000"><path d="M444.2 27.1c-20.5 2.6-39.3 15.3-47.5 32.1-2 4-3.9 9-4.3 11.1-.8 4.7-1.6 5.2-4.7 2.7-7.7-6.1-21.4-9.4-32.4-7.9-13.6 1.9-26.5 11.2-31.8 23.1-5.3 11.8-2.7 27.4 6.1 35.9 1.9 1.8 3.4 3.7 3.4 4.1 0 .4-72.4.9-161 1l-161 .3-2.5 2.6c-5.1 5-5.1 14.8 0 19.8l2.5 2.6 37.3.3 37.2.3-10.4 5C41.2 176.2 16.2 202.9 6 234c-3.2 9.8-6 25.6-6 34 0 8.5 2.8 24.3 6 34 11.8 35.2 41.8 64.5 80.5 78.6l8 2.9-41.7.5-41.6.5-2.6 2.4c-5.3 5-5.3 14.5-.1 19.7l2.4 2.4h41.5c22.8 0 41.7.4 42 .8.3.5-2.6 1.8-6.3 3-31.3 10.1-62.7 36.8-76.1 64.6-7.1 14.9-12 34.5-12 48.4 0 14 4.8 33.8 11.6 47.9 13.3 27.7 40.6 52 71.9 63.9l5 1.9-38.7.5-38.8.5-2.5 2.6c-5.1 5-5.1 14.8 0 19.8l2.5 2.6h778l2.5-2.6c5.1-5 5.1-14.8 0-19.8l-2.5-2.6-39.8-.5-39.7-.5 5-1.9c36.3-13.8 66.4-43.9 77.4-77.5 7.8-23.7 7-51.1-2.1-74.1-12.9-32.7-44.7-61.8-79.9-73.2-3.7-1.2-6.6-2.5-6.3-3 .3-.4 19.6-.8 43-.8h42.5l2.4-2.4c5.2-5.2 5.2-14.7-.1-19.7l-2.6-2.4-42.6-.5-42.7-.5 8-2.8c24.1-8.6 46.9-25 62-44.5 16-20.6 23.6-42.8 23.6-68.2 0-25.1-7.2-46.4-22.7-66.9-12.8-17-28.8-29.9-49.9-40.2l-12-5.8 38.2-.3 38.3-.3 2.5-2.6c5.1-5 5.1-14.8 0-19.8l-2.5-2.6-152.2-.3-152.2-.2 5-3.4c2.7-1.8 7.5-6.2 10.7-9.6 15.2-16.4 18.3-37.5 8.4-57.5-3.8-7.7-16.1-19.9-24.2-24.2-11.5-6-27.5-8.9-40.3-7.2zm-37 91.1c2.9 2.8 7.3 6.4 9.7 8l4.5 2.8h-31.5l3.9-4.8c2.2-2.6 4.7-6.2 5.6-8 .9-1.7 1.8-3.2 2.1-3.2.2 0 2.8 2.3 5.7 5.2zm-71.9 42.3c-27.9 13.3-49.7 34-62.3 59.2l-4.6 9.2-3.5-7.2c-13.5-28.4-38.1-51-69.9-64.3l-5.5-2.3h157l-11.2 5.4zm270.7-4.3c-19.4 8.6-28.5 13.9-40.8 24.2-13 10.7-25.4 26.7-32.3 41.6l-3.2 7-4.1-8.2c-13.8-28-38.5-50.4-69.6-63.4l-5.5-2.3h79c58.3 0 78.3.3 76.5 1.1zM164.9 165c25.4 5.1 47.3 16.4 63.8 32.8 17.5 17.3 26.8 35.6 30.1 58.9 1.4 10.3 1.4 12.3 0 22.5-2.4 16.8-6.9 28.5-16.6 43.2-9.1 13.7-26.9 29-43.7 37.4-21.5 10.7-50.9 16-74.2 13.3-45-5.3-80.5-28.3-97.9-63.6-7.3-15-9.8-25.4-9.8-41.5s2.5-26.5 9.8-41.5c17-34.5 52.5-58 95.7-63.5 10.8-1.3 31.1-.4 42.8 2zm248.6-2c43.7 4.9 79.7 28.4 97 63.5 7.4 14.9 9.8 25.2 9.8 41.5s-2.4 26.6-9.8 41.5c-25.9 52.4-93.3 77.4-154.5 57.4-38.1-12.4-67.7-42.5-76.1-77.4-3.1-12.5-3.1-30.5 0-42.9 2.6-10.7 9.3-25.3 15.8-34.4 24.7-34.6 71.9-54.3 117.8-49.2zm261 0c43.7 4.9 79.9 28.6 97.1 63.5 7.3 15 9.8 25.4 9.8 41.5s-2.5 26.5-9.8 41.5c-14.5 29.4-42.4 51.1-77.3 59.8-60.3 15.2-122.8-11-146.8-61.4-14.5-30.5-11.6-64.5 8-94 5.2-7.7 16.4-19.4 24.6-25.7 25.5-19.3 61.3-28.9 94.4-25.2zM283.6 333.9c15.4 20.6 38.8 37.7 63.9 46.7l8 2.9-43.2.3c-23.7.1-62.9.1-87 0l-43.8-.3 8-2.9c33.3-11.9 60.5-35.6 75-65.5l3.9-8 4.8 9.6c2.6 5.2 7.3 13 10.4 17.2zm257.8-4.7c14.9 22.5 40 41.7 67.1 51.4l8 2.9-43.2.3c-23.7.1-62.9.1-87 0l-43.8-.3 8-2.9c23.5-8.4 45.5-23.8 60-41.9 7-8.8 14.3-20.4 17.1-27.6l1.7-4.4 4.3 8.6c2.4 4.8 5.9 11.1 7.8 13.9zm-186 80.6c.3.5-2.6 1.8-6.3 3-33.4 10.8-65.2 39-78.3 69.4l-2.1 5-4.5-8.8c-13-26-34.8-46.9-62.2-59.8-5.2-2.4-12.1-5.2-15.2-6.2-3.1-.9-5.5-2.1-5.2-2.6.7-1 173.1-1.1 173.8 0zm261 0c.3.5-2.6 1.8-6.3 3-9.9 3.2-24.1 10.4-34.4 17.5-17.5 11.9-35.9 33.4-43.3 50.5l-2.7 6.3-4.1-8.3c-5.2-10.4-7.8-14.4-15.7-24.2-14.2-17.7-39-34.7-61-41.8-3.7-1.2-6.6-2.5-6.3-3 .7-1.1 173.1-1.1 173.8 0zM164.8 423c39 7.9 69.1 29.8 84.7 61.5 7.4 15.1 9.9 25.5 9.9 41.5 0 9.7-.6 14.5-2.3 21.5-10.4 40.9-45.6 72.1-91.9 81.4C111.4 639.8 56 617.7 30.3 575c-9.6-15.9-13.8-31.3-13.7-50 .2-15.8 3.1-27.7 10.3-41.7 17.3-33.7 51.8-56.3 94.6-62.2 10.4-1.5 31.6-.5 43.3 1.9zm261.3 0c23.8 4.9 41.9 13.8 60.9 29.9 13.4 11.5 26.8 33.6 31.1 51.6 3.1 12.6 3.1 30.6.1 42.9-7.5 30.3-30.5 57.1-61.3 71.5-48.5 22.6-105.7 15-145.3-19.3-14.1-12.3-27.4-34-31.7-52.1-3.1-12.6-3.1-30.5 0-42.9 6.7-27.4 25.8-51.8 52.7-67.1 14-8 33.4-14.3 50.2-16.4 11.2-1.4 31.4-.5 43.3 1.9zm248.4-2c43.9 5 79.9 28.5 97.1 63.5 7.3 15 9.8 25.4 9.8 41.5s-2.5 26.5-9.8 41.5c-28.7 58.3-108.5 81.6-172.1 50.2-15.8-7.7-33.1-22.3-42.8-35.9-6.4-8.9-13-23.4-15.8-34.3-4.1-16.4-2.9-37 3.2-53.5 17.8-48.2 73.6-79.4 130.4-73zM283.4 591.6c15.3 20.5 33.8 34.2 63.6 47.2 1.8.8-19.3 1.1-78.5 1.1s-80.3-.3-78.5-1.1c23.4-10.2 36.7-18.7 50.4-32.2 9.9-9.8 20.6-24.9 25.2-35.4l2.7-6.3 4.7 9.4c2.5 5.2 7.2 13 10.4 17.3zm258.1-4.1c9 13.4 23.4 27.3 38.3 37 6.2 4 16.2 9 28.2 14.3 1.8.8-19 1.1-78.5 1.1s-80.3-.3-78.5-1.1c1.4-.6 6.8-3.1 12-5.5 26.9-12.5 50.4-34.8 62.1-59.2l4.4-9 4.3 8.7c2.4 4.7 5.9 10.9 7.7 13.7z"/></svg>