<svg version="1" xmlns="http://www.w3.org/2000/svg" width="933.333" height="933.333" viewBox="0 0 700.000000 700.000000"><path d="M382.6 32.1c-12.5 2.9-25 13-30.7 24.6-3.1 6.2-3.4 7.5-3.4 16.3 0 8.7.3 10.1 3.2 16 5.2 10.5 13.1 17.7 25 22.6l5.8 2.4h-51.8l4.1-3c8.5-6.1 12.4-15.9 10.3-25.4-1.8-8-6.2-13.3-14.5-17.6-6.3-3.2-7.7-3.5-15-3.5-6.2.1-9.3.6-13.1 2.3-6.2 2.8-12.1 8.4-14.6 13.7-2.5 5.3-2.5 14.7 0 20.1 2 4.4 8.1 10.9 11.5 12.1 1.1.4-64.4 1-145.7 1.3l-147.9.5-2.9 3.3c-2.4 2.7-2.9 4.1-2.9 8.3 0 4.3.5 5.5 2.9 8l2.9 2.9 47.9.1h47.8l-10 2.4c-26.2 6.1-44.1 15.9-61.1 33.7C12.7 191.7 4 212.7 4 237.4c0 45.1 32.8 83.5 82.5 96.6l7 1.9H50.2c-27.7.1-44 .5-45.3 1.1-2.8 1.5-4.9 6.3-4.9 11.1 0 3.3.6 4.7 3.4 7.5l3.4 3.4 40.3.1h40.4l-8.6 2.9c-17.4 5.8-32.1 14.5-44.6 26.3-10 9.5-15.7 17.3-21.4 29.2-7.3 15.3-8.4 20.3-8.4 39 0 18.5 1.1 23.6 8.1 38.4C25.8 523 53.1 544.5 86.3 553l11.2 2.9-44.7.1c-32.4 0-45.4.3-47.3 1.2-7.3 3.3-7.3 17.3 0 20.6 2 .9 81.6 1.2 344.6 1.2 294 0 342.4-.2 344.8-1.4 6.9-3.6 6.9-16.6 0-20.2-2.3-1.1-11-1.4-48.6-1.5l-45.8-.1 8.3-1.9c39.4-9.1 70.7-36.1 81.5-70.4 5.6-18 5.5-37-.4-54.7-3.5-10.8-6.3-16.3-12.7-25.3-13.9-19.6-32.8-33.1-58.2-41.6l-8.5-2.8 41.4-.1h41.3l3.4-3.4c2.8-2.8 3.4-4.2 3.4-7.5 0-4.8-2.1-9.6-4.9-11.1-1.3-.6-17.8-1-45.8-1.1h-43.8l9.9-2.9c12-3.4 29.6-12 38.7-19 48.5-36.7 54-100.9 12.2-142.6-16.3-16.4-36.7-27.1-62.3-32.7-6-1.4-2.7-1.5 41.8-1.6l48.4-.1 2.9-2.9c2.4-2.5 2.9-3.8 2.9-7.8 0-2.9-.7-5.8-1.6-7.2-3.8-5.3 2.5-5.1-148.1-5.1l-139.8-.1 5.8-2.4c25.4-10.6 35.3-36.8 22.2-59.1-5-8.5-15.9-16.4-27.4-19.8-6-1.8-21.9-2-28.5-.5zM325 138.7c-51.9 11.4-85.9 46.1-90.5 92.4-1.3 12.8 2.8 33.7 9.2 46.4 7 13.8 21.6 30.2 35.2 39.4 9.1 6.2 25.1 13.6 35.6 16.5l9 2.5h-90c-89.9 0-90 0-82.8-1.9 28.9-7.6 54.3-25.5 68.4-48.4 17.1-27.8 18.6-60 4.1-89.1-5-10.2-10.9-18-20.3-27-16.4-15.7-34.1-24.8-58.9-30.4l-8.5-1.9h98c87.5 0 97.3.2 91.5 1.5zm233-.5c-41.6 9-72.5 32-85.9 64.2-5.2 12.4-6.5 19.6-6.5 35.1-.1 15.1 1.4 22.4 7 35.8 12 28.4 40.8 51.8 74.9 60.8 6.9 1.8 6.2 1.8-83 1.8h-90l8-2.3c32.7-9 58.1-28.9 71.6-56.1 7.4-15 9.2-23 9.2-40.5 0-12.9-.3-15.5-2.7-23.5-11.8-39.1-42.8-65.2-89.6-75.3-3-.6 27.9-1 93.5-1s96.5.4 93.5 1zm-421 13.3c57.1 9.3 93.5 57.7 80 106.3-9 32.2-39 57.5-76.7 64.8-10.7 2.1-30.8 2.3-41.3.5-21.5-3.8-40.4-13-55-26.7-29.9-28.3-35.5-68.9-13.8-102.1 21-32.2 64.5-49.6 106.8-42.8zm227.5-.4c16.4 2.2 29.6 6.9 43.9 15.3 10 5.9 25.2 21.1 31 31.1 21 36.2 11.4 79.1-23.6 105.5-43.1 32.5-108.2 27.8-145.2-10.5-18.6-19.2-26.6-46.6-21-71.8 2-9.2 8.8-23.4 14.8-31.4 21.3-28.1 61.8-43.6 100.1-38.2zm231.1 0c39.9 5.5 71.8 30.5 82.4 64.4 2.7 8.8 3.7 25.5 2.1 35-2.7 15.5-11.1 31.1-23.3 43.4-8.3 8.4-16.3 14-27.9 19.5-50.4 24.2-112.9 7.7-139.8-36.8-7.2-12-12-32.2-10.6-45.1 2.3-21.5 10.8-38.1 27.3-53.6 22.6-21.2 56.8-31.4 89.8-26.8zM308 362.6c-36.2 12.2-62.9 39.6-71.2 73.1-3 12.2-3 29.4 0 41.6 6.6 26.5 25 49.8 51.3 64.5 7.7 4.4 22.8 10.1 32.4 12.2 7.9 1.8 7.1 1.8-86.5 1.9h-94.5l11.2-2.9c42.4-10.8 74.4-42.9 81.2-81.4 1.4-7.6 1.4-22.6 0-30.2-6.3-36-34.5-66.3-73.8-79.4l-8.6-2.9H234l84.5-.1-10.5 3.6zm231.3-.1c-36.5 12.3-62.5 38.3-71.5 71.6-3.2 12-3.2 32.8 0 44.8 7.2 26.7 26.2 49.7 52.5 63.6 10.1 5.4 17.6 8.2 29.2 11.1l9 2.3h-188l9.1-2.3c17.6-4.6 31.1-11 44.5-21.1 18-13.5 30-30.6 36.5-52.1 2.4-7.8 2.7-10.6 2.8-23.4 0-15.6-1.3-22.8-7-36.3-6.7-16-21.7-33.5-37.4-43.9-11.1-7.3-16.9-10.2-29.3-14.3l-10.2-3.5h170l-10.2 3.5zm-398.1 9c38.2 7.9 66.6 32.3 76 65.2 3.1 11 3.1 28.6 0 39.6-4.4 15.3-11.9 27.4-24.4 39.2-25.8 24.3-65.1 34-101.3 25.1-21-5.2-34.5-12.6-49.1-27.1C30.8 502 25.7 494.1 20.8 480c-3.1-9-3.2-10.3-3.2-23.5s.1-14.5 3.2-23.5c4.4-12.8 9.9-21.7 19.6-31.8 20.8-21.6 49.3-32.8 81.1-31.7 6.6.2 15.5 1.1 19.7 2zm222.3-1.4c35.6 4.4 67.5 26.1 80.1 54.6 8.9 20 8.9 43.5.1 63.5-15.2 34.2-56.8 57.5-99.2 55.5-54.9-2.7-96.5-40.3-96.5-87.2 0-53.3 54.3-93.9 115.5-86.4zm233 .4c39.9 5.9 70.8 30.2 81.5 64 3 9.4 3.8 27.2 1.7 37-4.1 19.1-14.7 36-30.7 48.8-41.3 33-106 30.9-143.9-4.7-33.5-31.6-35.7-79.5-5-113 23.1-25.2 60.1-37.5 96.4-32.1z"/></svg>